#N canvas 989 19 921 926 12;
#X floatatom 30 195 5 0 0 0 - - -;
#X obj 30 130 inlet;
#X text 26 97 float midi;
#X text 53 32 x mod 12 = 0 4 and 7 -> proper harmony;
#X obj 441 157 inlet;
#X obj 436 190 list-abs/list-drip;
#X obj 381 445 pack 0 0;
#X obj 395 306 + 1;
#X floatatom 381 399 5 0 0 0 - - -;
#X obj 394 277 float;
#X obj 394 240 bng 15 250 50 0 empty empty empty 17 7 0 10 -262144
-1 -1;
#X obj 255 447 pack 0 0;
#X obj 504 457 pack 0 0;
#X obj 513 423 t f f;
#X obj 388 182 bng 15 250 50 0 empty empty empty 17 7 0 10 -262144
-1 -1;
#X msg 444 240 -1;
#X obj 292 492 clone project-singletone 8;
#X obj 381 375 % 8;
#X text 311 84 list of harmonies (of the form 4 -5 12 0 \, as an example)
;
#X connect 0 0 11 1;
#X connect 1 0 0 0;
#X connect 4 0 5 0;
#X connect 4 0 14 0;
#X connect 5 0 6 1;
#X connect 5 0 10 0;
#X connect 6 0 16 1;
#X connect 7 0 17 0;
#X connect 8 0 9 1;
#X connect 8 0 6 0;
#X connect 8 0 11 0;
#X connect 8 0 13 0;
#X connect 9 0 7 0;
#X connect 10 0 9 0;
#X connect 11 0 16 0;
#X connect 12 0 16 2;
#X connect 13 0 12 0;
#X connect 13 1 12 1;
#X connect 14 0 15 0;
#X connect 15 0 9 1;
#X connect 17 0 8 0;
