#N canvas 991 0 919 1016 12;
#X obj 147 107 inlet;
#X text 114 77 nr of harmonies;
#X floatatom 377 184 5 0 0 0 - - -;
#X msg 128 387 0;
#X msg 171 386 4;
#X msg 225 386 7;
#X obj 157 325 random 3;
#X obj 157 349 sel 0 1 2;
#X obj 157 270 t b b;
#X obj 286 385 * 12;
#X obj 268 462 +;
#X obj 157 242 cyclone/uzi;
#X obj 147 131 t b f;
#X obj 268 489 cyclone/zl group;
#X obj 268 526 outlet;
#X obj 286 337 random 3;
#X obj 286 361 - 1;
#X connect 0 0 12 0;
#X connect 2 0 11 1;
#X connect 2 0 13 1;
#X connect 3 0 10 0;
#X connect 4 0 10 0;
#X connect 5 0 10 0;
#X connect 6 0 7 0;
#X connect 7 0 3 0;
#X connect 7 1 4 0;
#X connect 7 2 5 0;
#X connect 8 0 6 0;
#X connect 8 1 15 0;
#X connect 9 0 10 1;
#X connect 10 0 13 0;
#X connect 11 0 8 0;
#X connect 12 0 11 0;
#X connect 12 1 2 0;
#X connect 13 0 14 0;
#X connect 15 0 16 0;
#X connect 16 0 9 0;
