#N canvas 69 -9 1842 1026 12;
#X obj 111 607 osc~;
#X obj 137 632 *~;
#X floatatom 54 138 5 0 0 0 - - -;
#X obj 81 364 mtof;
#X obj 54 73 inlet;
#X obj 177 68 inlet;
#X obj 177 92 t f b;
#X text 140 44 tone message (float);
#X text 34 46 midi (float);
#X obj 81 340 +;
#X obj 780 92 inlet;
#X text 755 65 clone ID :);
#X obj 400 715 throw~;
#X msg 768 182 set s\$1;
#X obj 780 116 % 4;
#X obj 312 74 receive volume;
#X floatatom 309 118 5 0 0 0 - - -;
#X obj 252 168 float;
#X obj 137 671 *~;
#X obj 40 453 < 45;
#X obj 40 477 sel 0 1;
#X obj 69 556 float;
#X obj 78 397 t f f f;
#X obj 143 437 float;
#X obj 143 461 ftom;
#X obj 143 485 + 12;
#X obj 143 509 mtof;
#X text -381 474 if this produces a too-low tone \, play it an octave
up;
#X obj 221 562 project-ADR;
#X obj 238 639 cyclone/scale 45 70 0.01 2;
#X obj 188 275 cyclone/scale 60 80 600 1000;
#X obj 237 316 cyclone/scale 60 80 600 1500;
#X obj 282 348 cyclone/scale 60 80 0.4 0.8;
#X obj 350 380 cyclone/scale 60 80 1200 4500;
#X connect 0 0 1 0;
#X connect 1 0 18 0;
#X connect 2 0 9 0;
#X connect 3 0 22 0;
#X connect 4 0 2 0;
#X connect 5 0 6 0;
#X connect 6 0 9 1;
#X connect 6 1 17 0;
#X connect 9 0 3 0;
#X connect 10 0 14 0;
#X connect 13 0 12 0;
#X connect 14 0 13 0;
#X connect 15 0 16 0;
#X connect 16 0 17 1;
#X connect 17 0 29 0;
#X connect 17 0 30 0;
#X connect 17 0 31 0;
#X connect 17 0 32 0;
#X connect 17 0 33 0;
#X connect 18 0 12 0;
#X connect 19 0 20 0;
#X connect 20 0 21 0;
#X connect 20 1 23 0;
#X connect 21 0 0 0;
#X connect 22 0 19 0;
#X connect 22 1 21 1;
#X connect 22 2 23 1;
#X connect 23 0 24 0;
#X connect 24 0 25 0;
#X connect 25 0 26 0;
#X connect 26 0 0 0;
#X connect 28 0 1 1;
#X connect 29 0 18 1;
#X connect 30 0 28 0;
#X connect 31 0 28 1;
#X connect 32 0 28 2;
#X connect 33 0 28 3;
