#N canvas 69 -9 1842 1026 12;
#X obj 602 988 dac~;
#X obj 602 940 catch~ output;
#X obj 84 580 myADSRramp;
#X obj 82 503 bng 15 250 50 0 empty empty empty 17 7 0 10 -262144 -1
-1;
#X obj 65 806 *~;
#X obj 39 752 osc~;
#X obj 38 719 *~ 1;
#X obj 721 629 mtof;
#X obj 328 586 myADSRramp;
#X obj 326 509 bng 15 250 50 0 empty empty empty 17 7 0 10 -262144
-1 -1;
#X obj 309 812 *~;
#X obj 571 589 myADSRramp;
#X obj 569 512 bng 15 250 50 0 empty empty empty 17 7 0 10 -262144
-1 -1;
#X obj 552 815 *~;
#X obj 802 592 myADSRramp;
#X obj 800 515 bng 15 250 50 0 empty empty empty 17 7 0 10 -262144
-1 -1;
#X obj 783 818 *~;
#X obj 1037 595 myADSRramp;
#X obj 1035 518 bng 15 250 50 0 empty empty empty 17 7 0 10 -262144
-1 -1;
#X obj 1018 821 *~;
#X obj 1276 599 myADSRramp;
#X obj 1274 522 bng 15 250 50 0 empty empty empty 17 7 0 10 -262144
-1 -1;
#X obj 1257 825 *~;
#X obj 103 779 hsl 128 15 0 1 0 0 empty empty empty -2 -8 0 10 -262144
-1 -1 0 1;
#X obj 65 777 *~;
#X obj 282 749 osc~;
#X obj 346 776 hsl 128 15 0 1 0 0 empty empty empty -2 -8 0 10 -262144
-1 -1 12700 1;
#X obj 309 774 *~;
#X obj 525 754 osc~;
#X obj 589 781 hsl 128 15 0 1 0 0 empty empty empty -2 -8 0 10 -262144
-1 -1 12700 1;
#X obj 552 780 *~;
#X obj 756 756 osc~;
#X obj 820 783 hsl 128 15 0 1 0 0 empty empty empty -2 -8 0 10 -262144
-1 -1 12700 1;
#X obj 784 781 *~;
#X obj 991 757 osc~;
#X obj 1055 784 hsl 128 15 0 1 0 0 empty empty empty -2 -8 0 10 -262144
-1 -1 12700 1;
#X obj 1018 783 *~;
#X obj 1231 753 osc~;
#X obj 1295 780 hsl 128 15 0 1 0 0 empty empty empty -2 -8 0 10 -262144
-1 -1 12700 1;
#X obj 1257 778 *~;
#X obj 281 716 *~ 2;
#X obj 707 452 bng 15 250 50 0 empty empty empty 17 7 0 10 -262144
-1 -1;
#X msg 22 551 100;
#X msg 266 557 100;
#X msg 137 553 0.6;
#X msg 381 559 0.6;
#X msg 509 560 100;
#X msg 624 562 0.6;
#X msg 855 565 0.6;
#X msg 1090 568 0.6;
#X msg 1329 572 0.6;
#X floatatom 466 161 5 0 0 0 - - -;
#X obj 655 68 adc~;
#X floatatom 721 653 5 0 0 0 - - -;
#X obj 524 721 *~ 0.75;
#X obj 755 723 *~ 1.5;
#X obj 990 724 *~ 1.25;
#X obj 1230 720 *~ 0.5;
#X msg 81 552 500;
#X msg 325 558 500;
#X msg 568 561 500;
#X msg 740 563 100;
#X msg 799 564 500;
#X msg 975 566 100;
#X msg 1034 567 500;
#X msg 1214 570 100;
#X msg 1273 571 500;
#X msg 190 554 10000;
#X msg 434 560 10000;
#X msg 677 563 10000;
#X msg 908 566 10000;
#X msg 1143 569 10000;
#X msg 1382 573 10000;
#X obj 539 226 float;
#X floatatom 466 210 5 0 0 0 - - -;
#X obj 492 249 -;
#X obj 492 273 abs;
#X obj 492 297 < 0.5;
#X obj 492 321 sel 0;
#X obj 492 345 bng 15 250 50 0 empty empty empty 17 7 0 10 -262144
-1 -1;
#X floatatom 539 397 5 0 0 0 - - -;
#X obj 466 186 t f f;
#X obj 666 94 sigmund~ -stabletime 150 notes env;
#X text 52 184 if new pitch and old pitch are less than 0.5 apart \,
disregard. if not \, harmonize to new pitch;
#X text 797 164 if pitch shifts enough \, we renew the note. to do:
also renew when you sing the same note by measuring loudness;
#X obj 65 830 throw~ output;
#X obj 309 836 throw~ output;
#X obj 552 839 throw~ output;
#X obj 783 842 throw~ output;
#X obj 1018 845 throw~ output;
#X obj 1257 849 throw~ output;
#X connect 1 0 0 0;
#X connect 1 0 0 1;
#X connect 2 0 24 1;
#X connect 3 0 42 0;
#X connect 3 0 58 0;
#X connect 3 0 44 0;
#X connect 3 0 67 0;
#X connect 4 0 85 0;
#X connect 5 0 24 0;
#X connect 6 0 5 0;
#X connect 7 0 6 0;
#X connect 7 0 40 0;
#X connect 7 0 53 0;
#X connect 7 0 54 0;
#X connect 7 0 55 0;
#X connect 7 0 56 0;
#X connect 7 0 57 0;
#X connect 8 0 27 1;
#X connect 9 0 43 0;
#X connect 9 0 59 0;
#X connect 9 0 45 0;
#X connect 9 0 68 0;
#X connect 10 0 86 0;
#X connect 11 0 30 1;
#X connect 12 0 46 0;
#X connect 12 0 60 0;
#X connect 12 0 47 0;
#X connect 12 0 69 0;
#X connect 13 0 87 0;
#X connect 14 0 33 1;
#X connect 15 0 61 0;
#X connect 15 0 62 0;
#X connect 15 0 48 0;
#X connect 15 0 70 0;
#X connect 16 0 88 0;
#X connect 17 0 36 1;
#X connect 18 0 63 0;
#X connect 18 0 64 0;
#X connect 18 0 49 0;
#X connect 18 0 71 0;
#X connect 19 0 89 0;
#X connect 20 0 39 1;
#X connect 21 0 65 0;
#X connect 21 0 66 0;
#X connect 21 0 50 0;
#X connect 21 0 72 0;
#X connect 22 0 90 0;
#X connect 23 0 4 1;
#X connect 24 0 4 0;
#X connect 25 0 27 0;
#X connect 26 0 10 1;
#X connect 27 0 10 0;
#X connect 28 0 30 0;
#X connect 29 0 13 1;
#X connect 30 0 13 0;
#X connect 31 0 33 0;
#X connect 32 0 16 1;
#X connect 33 0 16 0;
#X connect 34 0 36 0;
#X connect 35 0 19 1;
#X connect 36 0 19 0;
#X connect 37 0 39 0;
#X connect 38 0 22 1;
#X connect 39 0 22 0;
#X connect 40 0 25 0;
#X connect 41 0 9 0;
#X connect 41 0 21 0;
#X connect 41 0 18 0;
#X connect 41 0 15 0;
#X connect 41 0 12 0;
#X connect 41 0 3 0;
#X connect 42 0 2 0;
#X connect 43 0 8 0;
#X connect 44 0 2 2;
#X connect 45 0 8 2;
#X connect 46 0 11 0;
#X connect 47 0 11 2;
#X connect 48 0 14 2;
#X connect 49 0 17 2;
#X connect 50 0 20 2;
#X connect 51 0 81 0;
#X connect 52 0 82 0;
#X connect 52 1 82 0;
#X connect 54 0 28 0;
#X connect 55 0 31 0;
#X connect 56 0 34 0;
#X connect 57 0 37 0;
#X connect 58 0 2 1;
#X connect 59 0 8 1;
#X connect 60 0 11 1;
#X connect 61 0 14 0;
#X connect 62 0 14 1;
#X connect 63 0 17 0;
#X connect 64 0 17 1;
#X connect 65 0 20 0;
#X connect 66 0 20 1;
#X connect 67 0 2 3;
#X connect 68 0 8 3;
#X connect 69 0 11 3;
#X connect 70 0 14 3;
#X connect 71 0 17 3;
#X connect 72 0 20 3;
#X connect 73 0 75 1;
#X connect 73 0 80 0;
#X connect 74 0 75 0;
#X connect 75 0 76 0;
#X connect 76 0 77 0;
#X connect 77 0 78 0;
#X connect 78 0 79 0;
#X connect 79 0 73 0;
#X connect 80 0 7 0;
#X connect 80 0 41 0;
#X connect 81 0 74 0;
#X connect 81 1 73 1;
#X connect 82 0 51 0;
