#N canvas 89 24 1842 1026 12;
#X floatatom 466 161 5 0 0 0 - - -;
#X obj 423 43 adc~;
#X obj 582 399 float;
#X floatatom 466 210 5 0 0 0 - - -;
#X obj 491 354 -;
#X obj 491 378 abs;
#X obj 491 402 < 0.5;
#X obj 491 426 sel 0;
#X obj 466 186 t f f;
#X text 95 396 if new pitch and old pitch are less than 0.5 apart \,
disregard. if not \, harmonize to new pitch;
#X msg 441 121 60;
#X msg 520 124 65;
#X obj 480 751 project-harmonizer;
#X obj 466 233 < 45;
#X obj 466 272 sel 1 0;
#X obj 489 300 float;
#X floatatom 489 324 5 0 0 0 - - -;
#X floatatom 582 423 5 0 0 0 - - -;
#X text 113 219 basic hi-pass filter (freq < 45 are ignored);
#X obj 1073 426 catch~ s1;
#X obj 1159 424 catch~ s2;
#X obj 1239 423 catch~ s3;
#X obj 990 425 catch~ s0;
#X obj 571 552 project-pickharmonies;
#X obj 613 689 list append;
#X msg 757 639 0;
#X obj 1138 536 dac~ 1 2 3 4;
#X obj 571 493 random 4;
#X obj 716 432 float;
#X obj 571 521 + 2;
#X obj 1001 461 *~;
#X obj 1106 456 *~;
#X obj 1175 458 *~;
#X obj 1236 456 *~;
#X obj 777 599 sel 0 1;
#X msg 802 637 10 0;
#X floatatom 784 461 5 0 0 0 - - -;
#X obj 715 463 t f f;
#X obj 490 457 t b b b;
#X obj 846 506 send volume;
#X obj 1059 301 hsl 128 15 0 0.08 0 0 empty empty empty -2 -8 0 10
-262144 -1 -1 300 1;
#X obj 437 77 sigmund~ -stabletime 100 notes env -minpower 45;
#X obj 775 562 < 75;
#X floatatom 1148 350 5 0 0 0 - - -;
#X connect 0 0 8 0;
#X connect 1 0 41 0;
#X connect 1 1 41 0;
#X connect 2 0 4 1;
#X connect 2 0 12 0;
#X connect 2 0 17 0;
#X connect 3 0 13 0;
#X connect 4 0 5 0;
#X connect 5 0 6 0;
#X connect 6 0 7 0;
#X connect 7 0 38 0;
#X connect 8 0 3 0;
#X connect 8 1 15 1;
#X connect 10 0 0 0;
#X connect 11 0 0 0;
#X connect 13 0 14 0;
#X connect 14 1 15 0;
#X connect 15 0 2 1;
#X connect 15 0 16 0;
#X connect 16 0 4 0;
#X connect 19 0 31 0;
#X connect 20 0 32 0;
#X connect 21 0 33 0;
#X connect 22 0 30 0;
#X connect 23 0 24 0;
#X connect 24 0 12 1;
#X connect 25 0 24 1;
#X connect 27 0 29 0;
#X connect 28 0 36 0;
#X connect 28 0 37 0;
#X connect 28 0 39 0;
#X connect 29 0 23 0;
#X connect 30 0 26 0;
#X connect 31 0 26 1;
#X connect 32 0 26 2;
#X connect 33 0 26 3;
#X connect 34 0 25 0;
#X connect 34 1 35 0;
#X connect 35 0 24 1;
#X connect 37 0 23 1;
#X connect 37 1 42 0;
#X connect 38 0 27 0;
#X connect 38 1 2 0;
#X connect 38 2 28 0;
#X connect 40 0 30 1;
#X connect 40 0 31 1;
#X connect 40 0 32 1;
#X connect 40 0 33 1;
#X connect 40 0 43 0;
#X connect 41 0 0 0;
#X connect 41 1 28 1;
#X connect 42 0 34 0;
