#N canvas 990 -9 921 1026 12;
#X floatatom 30 195 5 0 0 0 - - -;
#X obj 30 130 inlet;
#X text 26 97 float midi;
#X text 53 32 x mod 12 = 0 4 and 7 -> proper harmony;
#X obj 379 261 inlet;
#X text 410 125 list of harmonies;
#X obj 437 350 list-abs/list-drip;
#X obj 307 349 list length;
#X floatatom 307 373 5 0 0 0 - - -;
#X obj 233 798 clone project-singletone 3;
#X obj 377 608 pack 0 0;
#X obj 377 514 + 1;
#X floatatom 377 562 5 0 0 0 - - -;
#X obj 376 485 float;
#X floatatom 408 447 5 0 0 0 - - -;
#X obj 377 538 % 3;
#X obj 376 448 bng 15 250 50 0 empty empty empty 17 7 0 10 -262144
-1 -1;
#X obj 251 610 pack 0 0;
#X obj 500 620 pack 0 0;
#X obj 509 586 t f f;
#X connect 0 0 17 1;
#X connect 1 0 0 0;
#X connect 4 0 6 0;
#X connect 4 0 7 0;
#X connect 6 0 10 1;
#X connect 6 0 16 0;
#X connect 7 0 8 0;
#X connect 10 0 9 1;
#X connect 11 0 15 0;
#X connect 12 0 13 1;
#X connect 12 0 10 0;
#X connect 12 0 17 0;
#X connect 12 0 19 0;
#X connect 13 0 11 0;
#X connect 14 0 13 1;
#X connect 15 0 12 0;
#X connect 16 0 13 0;
#X connect 17 0 9 0;
#X connect 18 0 9 2;
#X connect 19 0 18 0;
#X connect 19 1 18 1;
