#N canvas 958 65 919 926 12;
#X obj 111 607 osc~;
#X obj 137 632 *~;
#X floatatom 54 138 5 0 0 0 - - - 0;
#X obj 111 552 mtof;
#X obj 54 73 inlet;
#X obj 177 68 inlet;
#X obj 177 92 t f b;
#X text 140 44 tone message (float);
#X text 34 46 midi (float);
#X obj 111 528 +;
#X obj 780 92 inlet;
#X text 755 65 clone ID :);
#X obj 400 715 throw~;
#X msg 768 182 set s\$1;
#X obj 780 116 % 4;
#X obj 312 74 receive volume;
#X floatatom 309 118 5 0 0 0 - - - 0;
#X obj 221 562 myADSRramp;
#X obj 429 416 print Dt;
#X obj 567 416 print Rt;
#X obj 361 415 print At;
#X obj 499 415 print Dv;
#X obj 188 275 cyclone/scale 75 100 600 1000;
#X obj 237 316 cyclone/scale 75 100 600 1500;
#X obj 282 348 cyclone/scale 75 100 0.4 0.8;
#X obj 252 168 float;
#X obj 329 175 print volume;
#X obj 350 380 cyclone/scale 75 100 1200 4500;
#X obj 137 671 *~;
#X obj 238 639 cyclone/scale 75 100 0.01 2;
#X obj 271 746 print output volume:;
#X connect 0 0 1 0;
#X connect 1 0 28 0;
#X connect 2 0 9 0;
#X connect 3 0 0 0;
#X connect 4 0 2 0;
#X connect 5 0 6 0;
#X connect 6 0 9 1;
#X connect 6 1 25 0;
#X connect 9 0 3 0;
#X connect 10 0 14 0;
#X connect 13 0 12 0;
#X connect 14 0 13 0;
#X connect 15 0 16 0;
#X connect 16 0 25 1;
#X connect 16 0 26 0;
#X connect 17 0 1 1;
#X connect 22 0 17 0;
#X connect 22 0 20 0;
#X connect 23 0 17 1;
#X connect 23 0 18 0;
#X connect 24 0 17 2;
#X connect 24 0 21 0;
#X connect 25 0 22 0;
#X connect 25 0 23 0;
#X connect 25 0 24 0;
#X connect 25 0 27 0;
#X connect 25 0 29 0;
#X connect 27 0 17 3;
#X connect 27 0 19 0;
#X connect 28 0 12 0;
#X connect 29 0 28 1;
#X connect 29 0 30 0;
