#N canvas 136 0 921 1026 12;
#X floatatom 466 161 5 0 0 0 - - -;
#X obj 423 43 adc~;
#X obj 582 399 float;
#X floatatom 466 210 5 0 0 0 - - -;
#X obj 491 354 -;
#X obj 491 378 abs;
#X obj 491 402 < 0.5;
#X obj 491 426 sel 0;
#X obj 491 450 bng 15 250 50 0 empty empty empty 17 7 0 10 -262144
-1 -1;
#X obj 466 186 t f f;
#X text 95 396 if new pitch and old pitch are less than 0.5 apart \,
disregard. if not \, harmonize to new pitch;
#X text 683 207 if pitch shifts enough \, we renew the note. to do:
also renew when you sing the same note by measuring loudness;
#X obj 905 82 else/keyboard 17 80 4 3 0 0 empty empty;
#X msg 441 121 60;
#X msg 520 124 65;
#X obj 582 716 project-harmonizer;
#X obj 957 566 random 6;
#X obj 812 562 random 6;
#X obj 886 566 random 6;
#X obj 815 507 t b b b;
#X obj 854 601 pack 0 0 0;
#X text 964 546 solution for repeat picks: use an array (subpatch)
;
#X obj 466 233 < 45;
#X obj 466 272 sel 1 0;
#X obj 489 300 float;
#X floatatom 489 324 5 0 0 0 - - -;
#X floatatom 582 423 5 0 0 0 - - -;
#X text 113 219 basic hi-pass filter (freq < 45 are ignored);
#X msg 702 641 3 5 12;
#X obj 437 77 sigmund~ -hop 22050 -stabletime 150 notes env;
#X connect 0 0 9 0;
#X connect 1 0 29 0;
#X connect 1 1 29 0;
#X connect 2 0 4 1;
#X connect 2 0 15 0;
#X connect 2 0 26 0;
#X connect 3 0 22 0;
#X connect 4 0 5 0;
#X connect 5 0 6 0;
#X connect 6 0 7 0;
#X connect 7 0 8 0;
#X connect 8 0 2 0;
#X connect 8 0 19 0;
#X connect 8 0 28 0;
#X connect 9 0 3 0;
#X connect 9 1 24 1;
#X connect 13 0 0 0;
#X connect 14 0 0 0;
#X connect 16 0 20 2;
#X connect 17 0 20 0;
#X connect 18 0 20 1;
#X connect 19 0 17 0;
#X connect 19 1 18 0;
#X connect 19 2 16 0;
#X connect 22 0 23 0;
#X connect 23 1 24 0;
#X connect 24 0 2 1;
#X connect 24 0 25 0;
#X connect 25 0 4 0;
#X connect 28 0 15 1;
#X connect 29 0 0 0;
