#N canvas 70 0 1680 1016 12;
#X obj 84 580 myADSRramp;
#X obj 82 503 bng 15 250 50 0 empty empty empty 17 7 0 10 -262144 -1
-1;
#X obj 39 752 osc~;
#X obj 328 586 myADSRramp;
#X obj 326 509 bng 15 250 50 0 empty empty empty 17 7 0 10 -262144
-1 -1;
#X obj 571 589 myADSRramp;
#X obj 569 512 bng 15 250 50 0 empty empty empty 17 7 0 10 -262144
-1 -1;
#X obj 802 592 myADSRramp;
#X obj 800 515 bng 15 250 50 0 empty empty empty 17 7 0 10 -262144
-1 -1;
#X obj 1037 595 myADSRramp;
#X obj 1035 518 bng 15 250 50 0 empty empty empty 17 7 0 10 -262144
-1 -1;
#X obj 1276 599 myADSRramp;
#X obj 1274 522 bng 15 250 50 0 empty empty empty 17 7 0 10 -262144
-1 -1;
#X obj 65 777 *~;
#X obj 282 749 osc~;
#X obj 309 774 *~;
#X obj 525 754 osc~;
#X obj 552 780 *~;
#X obj 756 756 osc~;
#X obj 784 781 *~;
#X obj 991 757 osc~;
#X obj 1018 783 *~;
#X obj 1231 753 osc~;
#X obj 1257 778 *~;
#X msg 22 551 100;
#X msg 266 557 100;
#X msg 137 553 0.6;
#X msg 381 559 0.6;
#X msg 509 560 100;
#X msg 624 562 0.6;
#X msg 855 565 0.6;
#X msg 1090 568 0.6;
#X msg 1329 572 0.6;
#X msg 81 552 500;
#X msg 325 558 500;
#X msg 568 561 500;
#X msg 740 563 100;
#X msg 799 564 500;
#X msg 975 566 100;
#X msg 1034 567 500;
#X msg 1214 570 100;
#X msg 1273 571 500;
#X floatatom 539 397 5 0 0 0 - - -;
#X obj 39 673 + 0;
#X obj 39 697 mtof;
#X obj 1231 694 mtof;
#X obj 282 687 mtof;
#X obj 525 690 mtof;
#X obj 756 692 mtof;
#X obj 991 695 mtof;
#X obj 282 687;
#X obj 282 663 + 4;
#X obj 756 668 + 12;
#X obj 524 666 + 7;
#X obj 1231 670 - 5;
#X obj 65 862 outlet~;
#X obj 309 861 outlet~;
#X obj 551 858 outlet~;
#X obj 783 858 outlet~;
#X obj 1019 862 outlet~;
#X obj 1260 868 outlet~;
#X obj 539 332 inlet;
#X text 535 299 float midi;
#X text 564 910 audio signal;
#X msg 1382 573 1000;
#X msg 1143 569 1000;
#X msg 908 566 1000;
#X msg 677 563 1000;
#X msg 434 560 1000;
#X obj 880 312 inlet;
#X obj 953 313 inlet;
#X obj 1028 312 inlet;
#X obj 1093 313 inlet;
#X obj 1159 315 inlet;
#X obj 1224 317 inlet;
#X obj 991 671 - 12;
#X text 1495 687 x mod 12 = 0 4 and 7 -> proper harmony;
#X msg 190 554 1000;
#X connect 0 0 13 1;
#X connect 1 0 24 0;
#X connect 1 0 33 0;
#X connect 1 0 26 0;
#X connect 1 0 77 0;
#X connect 2 0 13 0;
#X connect 3 0 15 1;
#X connect 4 0 25 0;
#X connect 4 0 34 0;
#X connect 4 0 27 0;
#X connect 4 0 68 0;
#X connect 5 0 17 1;
#X connect 6 0 28 0;
#X connect 6 0 35 0;
#X connect 6 0 29 0;
#X connect 6 0 67 0;
#X connect 7 0 19 1;
#X connect 8 0 36 0;
#X connect 8 0 37 0;
#X connect 8 0 30 0;
#X connect 8 0 66 0;
#X connect 9 0 21 1;
#X connect 10 0 38 0;
#X connect 10 0 39 0;
#X connect 10 0 31 0;
#X connect 10 0 65 0;
#X connect 11 0 23 1;
#X connect 12 0 40 0;
#X connect 12 0 41 0;
#X connect 12 0 32 0;
#X connect 12 0 64 0;
#X connect 13 0 55 0;
#X connect 14 0 15 0;
#X connect 15 0 56 0;
#X connect 16 0 17 0;
#X connect 17 0 57 0;
#X connect 18 0 19 0;
#X connect 19 0 58 0;
#X connect 20 0 21 0;
#X connect 21 0 59 0;
#X connect 22 0 23 0;
#X connect 23 0 60 0;
#X connect 24 0 0 0;
#X connect 25 0 3 0;
#X connect 26 0 0 2;
#X connect 27 0 3 2;
#X connect 28 0 5 0;
#X connect 29 0 5 2;
#X connect 30 0 7 2;
#X connect 31 0 9 2;
#X connect 32 0 11 2;
#X connect 33 0 0 1;
#X connect 34 0 3 1;
#X connect 35 0 5 1;
#X connect 36 0 7 0;
#X connect 37 0 7 1;
#X connect 38 0 9 0;
#X connect 39 0 9 1;
#X connect 40 0 11 0;
#X connect 41 0 11 1;
#X connect 42 0 43 0;
#X connect 42 0 53 0;
#X connect 42 0 54 0;
#X connect 42 0 52 0;
#X connect 42 0 51 0;
#X connect 42 0 75 0;
#X connect 43 0 44 0;
#X connect 44 0 2 0;
#X connect 45 0 22 0;
#X connect 46 0 14 0;
#X connect 47 0 16 0;
#X connect 48 0 18 0;
#X connect 49 0 20 0;
#X connect 51 0 46 0;
#X connect 51 0 50 0;
#X connect 52 0 48 0;
#X connect 53 0 47 0;
#X connect 54 0 45 0;
#X connect 61 0 42 0;
#X connect 64 0 11 3;
#X connect 65 0 9 3;
#X connect 66 0 7 3;
#X connect 67 0 5 3;
#X connect 68 0 3 3;
#X connect 69 0 1 0;
#X connect 70 0 4 0;
#X connect 71 0 6 0;
#X connect 72 0 8 0;
#X connect 73 0 10 0;
#X connect 74 0 12 0;
#X connect 75 0 49 0;
#X connect 77 0 0 3;
