#N canvas 991 0 919 1016 12;
#X obj 236 280 myADSRramp;
#X obj 234 203 bng 15 250 50 0 empty empty empty 17 7 0 10 -262144
-1 -1;
#X obj 103 378 osc~;
#X obj 129 403 *~;
#X msg 289 253 0.6;
#X msg 233 252 500;
#X floatatom 54 138 5 0 0 0 - - -;
#X obj 103 323 mtof;
#X obj 54 73 inlet;
#X obj 177 68 inlet;
#X obj 177 92 t f b;
#X text 140 44 tone message (float);
#X text 34 46 midi (float);
#X obj 103 299 +;
#X obj 489 86 inlet;
#X text 464 59 clone ID :);
#X obj 372 574 throw~;
#X msg 477 176 set s\$1;
#X obj 489 110 % 4;
#X obj 129 442 *~ 0.7;
#X msg 174 251 1000;
#X msg 342 254 6000;
#X connect 0 0 3 1;
#X connect 1 0 20 0;
#X connect 1 0 5 0;
#X connect 1 0 4 0;
#X connect 1 0 21 0;
#X connect 2 0 3 0;
#X connect 3 0 19 0;
#X connect 4 0 0 2;
#X connect 5 0 0 1;
#X connect 6 0 13 0;
#X connect 7 0 2 0;
#X connect 8 0 6 0;
#X connect 9 0 10 0;
#X connect 10 0 13 1;
#X connect 10 1 1 0;
#X connect 13 0 7 0;
#X connect 14 0 18 0;
#X connect 17 0 16 0;
#X connect 18 0 17 0;
#X connect 19 0 16 0;
#X connect 20 0 0 0;
#X connect 21 0 0 3;
