#N canvas -123 108 1140 926 12;
#X floatatom 466 161 5 0 0 0 - - - 0;
#X obj 423 43 adc~;
#X obj 582 399 float;
#X floatatom 466 210 5 0 0 0 - - - 0;
#X obj 491 354 -;
#X obj 491 378 abs;
#X obj 491 402 < 0.5;
#X obj 491 426 sel 0;
#X obj 491 450 bng 15 250 50 0 empty empty empty 17 7 0 10 #fcfcfc
#000000 #000000;
#X obj 466 186 t f f;
#X text 95 396 if new pitch and old pitch are less than 0.5 apart \,
disregard. if not \, harmonize to new pitch;
#X text 765 186 if pitch shifts enough \, we renew the note. to do:
also renew when you sing the same note by measuring loudness;
#X obj 905 82 else/keyboard 17 80 4 3 0 0 empty empty;
#X msg 441 121 60;
#X msg 520 124 65;
#X obj 475 680 project-harmonizer;
#X obj 466 233 < 45;
#X obj 466 272 sel 1 0;
#X obj 489 300 float;
#X floatatom 489 324 5 0 0 0 - - - 0;
#X floatatom 582 423 5 0 0 0 - - - 0;
#X text 113 219 basic hi-pass filter (freq < 45 are ignored);
#X obj 1073 426 catch~ s1;
#X obj 1159 424 catch~ s2;
#X obj 1239 423 catch~ s3;
#X obj 990 425 catch~ s0;
#X obj 595 548 project-pickharmonies;
#X obj 578 481 random 4;
#X obj 604 639 list append;
#X obj 595 572 t l b;
#X msg 678 601 0;
#X obj 1146 495 dac~ 1 2 3 4;
#X obj 578 505 + 2;
#X floatatom 699 139 5 0 0 0 - - - 0;
#X obj 437 77 sigmund~ -stabletime 150 notes env -minpower 30;
#X obj 856 429 metro;
#X connect 0 0 9 0;
#X connect 1 0 34 0;
#X connect 1 1 34 0;
#X connect 2 0 4 1;
#X connect 2 0 15 0;
#X connect 2 0 20 0;
#X connect 3 0 16 0;
#X connect 4 0 5 0;
#X connect 5 0 6 0;
#X connect 6 0 7 0;
#X connect 7 0 8 0;
#X connect 8 0 2 0;
#X connect 8 0 27 0;
#X connect 9 0 3 0;
#X connect 9 1 18 1;
#X connect 13 0 0 0;
#X connect 14 0 0 0;
#X connect 16 0 17 0;
#X connect 17 1 18 0;
#X connect 18 0 2 1;
#X connect 18 0 19 0;
#X connect 19 0 4 0;
#X connect 22 0 31 1;
#X connect 23 0 31 2;
#X connect 24 0 31 3;
#X connect 25 0 31 0;
#X connect 26 0 29 0;
#X connect 27 0 32 0;
#X connect 28 0 15 1;
#X connect 29 0 28 0;
#X connect 29 1 30 0;
#X connect 30 0 28 1;
#X connect 32 0 26 1;
#X connect 33 0 26 0;
#X connect 34 0 0 0;
#X connect 34 1 33 0;
