#N canvas 69 -9 1842 1026 12;
#X obj 602 988 dac~;
#X obj 602 940 catch~ output;
#X obj 84 580 myADSRramp;
#X obj 82 503 bng 15 250 50 0 empty empty empty 17 7 0 10 -262144 -1
-1;
#X obj 65 806 *~;
#X obj 39 752 osc~;
#X obj 328 586 myADSRramp;
#X obj 326 509 bng 15 250 50 0 empty empty empty 17 7 0 10 -262144
-1 -1;
#X obj 309 812 *~;
#X obj 571 589 myADSRramp;
#X obj 569 512 bng 15 250 50 0 empty empty empty 17 7 0 10 -262144
-1 -1;
#X obj 552 815 *~;
#X obj 802 592 myADSRramp;
#X obj 800 515 bng 15 250 50 0 empty empty empty 17 7 0 10 -262144
-1 -1;
#X obj 783 818 *~;
#X obj 1037 595 myADSRramp;
#X obj 1035 518 bng 15 250 50 0 empty empty empty 17 7 0 10 -262144
-1 -1;
#X obj 1018 821 *~;
#X obj 1276 599 myADSRramp;
#X obj 1274 522 bng 15 250 50 0 empty empty empty 17 7 0 10 -262144
-1 -1;
#X obj 1257 825 *~;
#X obj 103 779 hsl 128 15 0 1 0 0 empty empty empty -2 -8 0 10 -262144
-1 -1 12700 1;
#X obj 65 777 *~;
#X obj 282 749 osc~;
#X obj 346 776 hsl 128 15 0 1 0 0 empty empty empty -2 -8 0 10 -262144
-1 -1 12700 1;
#X obj 309 774 *~;
#X obj 525 754 osc~;
#X obj 589 781 hsl 128 15 0 1 0 0 empty empty empty -2 -8 0 10 -262144
-1 -1 12700 1;
#X obj 552 780 *~;
#X obj 756 756 osc~;
#X obj 820 783 hsl 128 15 0 1 0 0 empty empty empty -2 -8 0 10 -262144
-1 -1 12700 1;
#X obj 784 781 *~;
#X obj 991 757 osc~;
#X obj 1055 784 hsl 128 15 0 1 0 0 empty empty empty -2 -8 0 10 -262144
-1 -1 12700 1;
#X obj 1018 783 *~;
#X obj 1231 753 osc~;
#X obj 1295 780 hsl 128 15 0 1 0 0 empty empty empty -2 -8 0 10 -262144
-1 -1 12700 1;
#X obj 1257 778 *~;
#X obj 707 452 bng 15 250 50 0 empty empty empty 17 7 0 10 -262144
-1 -1;
#X msg 22 551 100;
#X msg 266 557 100;
#X msg 137 553 0.6;
#X msg 381 559 0.6;
#X msg 509 560 100;
#X msg 624 562 0.6;
#X msg 855 565 0.6;
#X msg 1090 568 0.6;
#X msg 1329 572 0.6;
#X floatatom 466 161 5 0 0 0 - - -;
#X obj 455 91 adc~;
#X msg 81 552 500;
#X msg 325 558 500;
#X msg 568 561 500;
#X msg 740 563 100;
#X msg 799 564 500;
#X msg 975 566 100;
#X msg 1034 567 500;
#X msg 1214 570 100;
#X msg 1273 571 500;
#X msg 190 554 10000;
#X msg 434 560 10000;
#X msg 677 563 10000;
#X msg 908 566 10000;
#X msg 1143 569 10000;
#X msg 1382 573 10000;
#X obj 539 226 float;
#X floatatom 466 210 5 0 0 0 - - -;
#X obj 492 249 -;
#X obj 492 273 abs;
#X obj 492 297 < 0.5;
#X obj 492 321 sel 0;
#X obj 492 345 bng 15 250 50 0 empty empty empty 17 7 0 10 -262144
-1 -1;
#X floatatom 539 397 5 0 0 0 - - -;
#X obj 466 186 t f f;
#X text 70 270 if new pitch and old pitch are less than 0.5 apart \,
disregard. if not \, harmonize to new pitch;
#X text 683 207 if pitch shifts enough \, we renew the note. to do:
also renew when you sing the same note by measuring loudness;
#X obj 65 830 throw~ output;
#X obj 39 673 + 0;
#X obj 39 697 mtof;
#X obj 1231 694 mtof;
#X obj 282 687 mtof;
#X obj 525 690 mtof;
#X obj 756 692 mtof;
#X obj 991 695 mtof;
#X obj 282 687;
#X obj 905 82 else/keyboard 17 80 4 3 0 0 empty empty;
#X obj 282 663 + 4;
#X obj 756 668 + 12;
#X obj 524 666 + 7;
#X obj 991 671 - 12;
#X obj 1231 670 - 5;
#X obj 1018 845 throw~ outputleft;
#X obj 783 842 throw~ outputright;
#X obj 442 927 catch~ outputleft;
#X obj 760 946 catch~ outputright;
#X obj 309 836 throw~ outputleft;
#X obj 552 839 throw~ outputleft;
#X obj 1257 849 throw~ outputright;
#X obj 466 117 sigmund~ notes env;
#X obj 1349 279 clone;
#X connect 1 0 0 0;
#X connect 1 0 0 1;
#X connect 2 0 22 1;
#X connect 3 0 39 0;
#X connect 3 0 50 0;
#X connect 3 0 41 0;
#X connect 3 0 59 0;
#X connect 4 0 76 0;
#X connect 5 0 22 0;
#X connect 6 0 25 1;
#X connect 7 0 40 0;
#X connect 7 0 51 0;
#X connect 7 0 42 0;
#X connect 7 0 60 0;
#X connect 8 0 95 0;
#X connect 9 0 28 1;
#X connect 10 0 43 0;
#X connect 10 0 52 0;
#X connect 10 0 44 0;
#X connect 10 0 61 0;
#X connect 11 0 96 0;
#X connect 12 0 31 1;
#X connect 13 0 53 0;
#X connect 13 0 54 0;
#X connect 13 0 45 0;
#X connect 13 0 62 0;
#X connect 14 0 92 0;
#X connect 15 0 34 1;
#X connect 16 0 55 0;
#X connect 16 0 56 0;
#X connect 16 0 46 0;
#X connect 16 0 63 0;
#X connect 17 0 91 0;
#X connect 18 0 37 1;
#X connect 19 0 57 0;
#X connect 19 0 58 0;
#X connect 19 0 47 0;
#X connect 19 0 64 0;
#X connect 20 0 97 0;
#X connect 21 0 4 1;
#X connect 22 0 4 0;
#X connect 23 0 25 0;
#X connect 24 0 8 1;
#X connect 25 0 8 0;
#X connect 26 0 28 0;
#X connect 27 0 11 1;
#X connect 28 0 11 0;
#X connect 29 0 31 0;
#X connect 30 0 14 1;
#X connect 31 0 14 0;
#X connect 32 0 34 0;
#X connect 33 0 17 1;
#X connect 34 0 17 0;
#X connect 35 0 37 0;
#X connect 36 0 20 1;
#X connect 37 0 20 0;
#X connect 38 0 7 0;
#X connect 38 0 19 0;
#X connect 38 0 16 0;
#X connect 38 0 13 0;
#X connect 38 0 10 0;
#X connect 38 0 3 0;
#X connect 39 0 2 0;
#X connect 40 0 6 0;
#X connect 41 0 2 2;
#X connect 42 0 6 2;
#X connect 43 0 9 0;
#X connect 44 0 9 2;
#X connect 45 0 12 2;
#X connect 46 0 15 2;
#X connect 47 0 18 2;
#X connect 48 0 73 0;
#X connect 49 0 98 0;
#X connect 49 1 98 0;
#X connect 50 0 2 1;
#X connect 51 0 6 1;
#X connect 52 0 9 1;
#X connect 53 0 12 0;
#X connect 54 0 12 1;
#X connect 55 0 15 0;
#X connect 56 0 15 1;
#X connect 57 0 18 0;
#X connect 58 0 18 1;
#X connect 59 0 2 3;
#X connect 60 0 6 3;
#X connect 61 0 9 3;
#X connect 62 0 12 3;
#X connect 63 0 15 3;
#X connect 64 0 18 3;
#X connect 65 0 67 1;
#X connect 65 0 72 0;
#X connect 66 0 67 0;
#X connect 67 0 68 0;
#X connect 68 0 69 0;
#X connect 69 0 70 0;
#X connect 70 0 71 0;
#X connect 71 0 65 0;
#X connect 72 0 38 0;
#X connect 72 0 77 0;
#X connect 72 0 88 0;
#X connect 72 0 90 0;
#X connect 72 0 89 0;
#X connect 72 0 87 0;
#X connect 72 0 86 0;
#X connect 73 0 66 0;
#X connect 73 1 65 1;
#X connect 77 0 78 0;
#X connect 78 0 5 0;
#X connect 79 0 35 0;
#X connect 80 0 23 0;
#X connect 81 0 26 0;
#X connect 82 0 29 0;
#X connect 83 0 32 0;
#X connect 86 0 80 0;
#X connect 86 0 84 0;
#X connect 87 0 82 0;
#X connect 88 0 81 0;
#X connect 89 0 83 0;
#X connect 90 0 79 0;
#X connect 93 0 0 0;
#X connect 94 0 0 1;
