#N canvas 70 540 919 476 12;
#X obj 382 35 inlet;
#X obj 280 28 inlet;
#X obj 165 28 inlet;
#X obj 66 31 inlet;
#X text 26 8 attack time;
#X text 147 8 decay time;
#X text 251 8 decay level;
#X obj 132 207 vline~;
#X obj 132 142 pack 0 0 0;
#X text 346 9 release time;
#X obj 349 138 pack 0 0 0;
#X msg 349 113 0;
#X obj 414 111 +;
#X msg 66 144 1 \$1;
#X obj 132 231 outlet~;
#X obj 414 82 t b f;
#X connect 0 0 10 1;
#X connect 0 0 11 0;
#X connect 1 0 8 0;
#X connect 2 0 8 1;
#X connect 2 0 15 0;
#X connect 3 0 13 0;
#X connect 3 0 8 2;
#X connect 3 0 12 0;
#X connect 7 0 14 0;
#X connect 8 0 7 0;
#X connect 10 0 7 0;
#X connect 11 0 10 0;
#X connect 12 0 10 2;
#X connect 13 0 7 0;
#X connect 15 0 12 0;
#X connect 15 1 12 1;
