#N canvas 934 50 919 895 12;
#X obj 147 107 inlet;
#X text 114 77 nr of harmonies;
#X floatatom 377 184 5 0 0 0 - - - 0;
#X msg 128 387 0;
#X msg 225 386 7;
#X obj 157 325 random 3;
#X obj 157 349 sel 0 1 2;
#X obj 157 270 t b b;
#X obj 286 385 * 12;
#X obj 268 462 +;
#X obj 157 242 cyclone/uzi;
#X obj 147 131 t b f;
#X obj 268 489 cyclone/zl group;
#X obj 268 526 outlet;
#X obj 286 337 random 3;
#X obj 286 361 - 1;
#X obj 45 338 inlet;
#X text 34 304 Volume;
#X floatatom 43 376 5 0 0 0 - - - 0;
#X obj 42 439 < 80;
#X obj 44 477 sel 0 1;
#X msg 70 536 3;
#X msg 27 535 4;
#X floatatom 175 389 5 0 0 0 - - - 0;
#X connect 0 0 11 0;
#X connect 2 0 10 1;
#X connect 2 0 12 1;
#X connect 3 0 9 0;
#X connect 4 0 9 0;
#X connect 5 0 6 0;
#X connect 6 0 3 0;
#X connect 6 1 23 0;
#X connect 6 2 4 0;
#X connect 7 0 5 0;
#X connect 7 1 14 0;
#X connect 8 0 9 1;
#X connect 9 0 12 0;
#X connect 10 0 7 0;
#X connect 11 0 10 0;
#X connect 11 1 2 0;
#X connect 12 0 13 0;
#X connect 14 0 15 0;
#X connect 15 0 8 0;
#X connect 16 0 18 0;
#X connect 18 0 19 0;
#X connect 19 0 20 0;
#X connect 20 0 22 0;
#X connect 20 1 21 0;
#X connect 21 0 23 0;
#X connect 22 0 23 0;
#X connect 23 0 9 0;
